# xmcd
#
# Track frame offsets:
# 150
# 13782
# 28850
# 44532
# 58547
# 75737
# 90852
# 109270
# 127682
# 143482
# 163717
# 177317
# 190552
# 206000
# 225352
# 238790
#
# Disc length: 3427 seconds
#
#
# Revision: 0
# Processed by: cddbd v1.5.1PL2 Copyright (c) Steve Scherf et al.
# Submitted via: FreeRIP 2.945 
#
DISCID=c40d6110
DTITLE=Tangará é Gralha Azul - Coração Machucado
DYEAR=2000
DGENRE=Sertanejo
TTITLE0=Encanto De Menina
TTITLE1=Coração Machucado
TTITLE2=É No Meio Que Eu Vou
TTITLE3=O Velho Tá Podendo
TTITLE4=Quero Você Aqui
TTITLE5=Hei Goiás , Lá Vai Meu Coração
TTITLE6=Cada Vez Que Lembro Nosso Amor
TTITLE7=O Amor Fere
TTITLE8=Estou Pro Que Der E Vier
TTITLE9=Porto Solidão
TTITLE10=Meu Bem Não Me Quer
TTITLE11=Ditado Sertanejo
TTITLE12=É Aqui o Seu Lugar
TTITLE13=Nossa História
TTITLE14=Eu Vou Cair No Mundo
TTITLE15=Tão Bobo
EXTD=
EXTT0=
EXTT1=
EXTT2=
EXTT3=
EXTT4=
EXTT5=
EXTT6=
EXTT7=
EXTT8=
EXTT9=
EXTT10=
EXTT11=
EXTT12=
EXTT13=
EXTT14=
EXTT15=
PLAYORDER=
